<svg width="240" height="24" viewBox="0 0 240 24" fill="none" xmlns="http://www.w3.org/2000/svg">
<path d="M27.0765 0.450409H23.4435V23.4087H27.0765V0.450409Z" fill="#009944"/>
<path d="M20.0013 0.450409H16.3641V23.4087H20.0013V0.450409Z" fill="#B5B5B6"/>
<path d="M12.9261 0.450409H9.28882V23.4087H12.9261V0.450409Z" fill="#530000"/>
<path d="M5.73561 0.328211L1.00006 22.8005L4.5574 23.5335L9.29295 1.0612L5.73561 0.328211Z" fill="#00A0E9"/>
<path d="M34.1561 0.450409H30.5189V23.4087H34.1561V0.450409Z" fill="#E60012"/>
<path d="M131.616 23.5013L129.288 21.8259L124.011 18.0248L118.729 21.8259L116.405 23.5013L117.3 20.7904L119.335 14.632L114.129 10.8856L111.806 9.21446H114.672H121.09L123.125 3.0392L124.011 0.362L124.892 3.0392L126.987 9.21446H133.345H136.215L133.892 10.8856L128.682 14.632L130.717 20.7904L131.616 23.5013Z" fill="black"/>
<path d="M120.433 14.2827L118.182 21.0767L124.011 16.8841L129.835 21.0767L127.588 14.2784L133.345 10.1363H126.253L124.011 3.32968L121.764 10.1363H114.672L120.433 14.2827Z" fill="white"/>
<path d="M77.7777 18.5342C77.7777 20.0033 77.252 21.2577 76.2007 22.2974C75.1493 23.3414 73.886 23.8591 72.4023 23.8591H71.4697C69.9902 23.8591 68.7227 23.3371 67.6714 22.2974C66.62 21.2577 66.0944 20.0033 66.0944 18.5342V5.32494C66.0944 3.85585 66.62 2.60144 67.6714 1.5617C68.7227 0.521971 69.986 0 71.4697 0H72.4023C73.8818 0 75.1493 0.521971 76.2007 1.5617C77.252 2.60564 77.7777 3.86006 77.7777 5.32494V18.5342ZM74.1955 17.5786V6.17525C74.1955 5.25338 74.098 4.57987 73.9072 4.15472C73.5978 3.51909 73.034 3.19918 72.2243 3.19918C70.5286 3.19918 69.6807 4.1926 69.6807 6.17525V17.5786C69.6807 19.5613 70.4565 20.5547 72.0081 20.5547C73.4664 20.5547 74.1955 19.5613 74.1955 17.5786Z" fill="black"/>
<path d="M93.9334 18.5342C93.9334 20.0033 93.4077 21.2577 92.3564 22.2974C91.3051 23.3414 90.0418 23.8591 88.5623 23.8591H87.6297C86.1502 23.8591 84.8827 23.3371 83.8313 22.2974C82.78 21.2577 82.2543 20.0033 82.2543 18.5342V5.32494C82.2543 3.85585 82.78 2.60144 83.8313 1.5617C84.8827 0.521971 86.1459 0 87.6297 0H88.5623C90.0418 0 91.3093 0.521971 92.3564 1.5617C93.4077 2.60564 93.9334 3.86006 93.9334 5.32494V18.5342ZM90.3555 17.5786V6.17525C90.3555 5.25338 90.2622 4.57987 90.0715 4.15472C89.762 3.51909 89.1982 3.19918 88.3885 3.19918C86.6928 3.19918 85.845 4.1926 85.845 6.17525V17.5786C85.845 19.5613 86.6207 20.5547 88.1723 20.5547C89.6263 20.5547 90.3555 19.5613 90.3555 17.5786Z" fill="black"/>
<path d="M110.627 23.4676H106.524L101.941 16.7115V23.4676H98.215V0.391479H101.941V7.07607L106.49 0.391479H110.551L102.403 11.858L110.627 23.4676Z" fill="black"/>
<path d="M160.006 0.374634L155.89 23.4887L152.057 23.455L149.874 10.7972L147.619 23.4929L143.787 23.4592L139.81 0.378843H143.536L145.72 16.0253L148.013 0.378843H151.807L153.99 16.0253L156.284 0.378843H160.006V0.374634Z" fill="black"/>
<path d="M174.292 23.4887H170.587L169.849 18.9593H166.848L166.077 23.4887H162.367L166.483 0.374634L170.316 0.412519L174.292 23.4887ZM169.281 15.2592L168.383 8.90717L167.484 15.2592H169.281Z" fill="black"/>
<path d="M190.02 20.1632V23.4718H179.167V0.391479H182.894V20.1632H190.02Z" fill="black"/>
<path d="M206.137 23.4676H202.033L197.451 16.7115V23.4676H193.725V0.391479H197.451V7.07607L202 0.391479H206.061L197.913 11.858L206.137 23.4676Z" fill="black"/>
<path d="M220.678 20.1801V23.4887H209.825V0.408338L220.678 0.370453V3.67907H213.552V9.90063H217.723V13.2093H213.552V20.1801H220.678Z" fill="black"/>
<path d="M61.6178 18.5552C61.6178 20.0285 61.1982 21.2282 60.363 22.1543C59.5279 23.0803 58.3833 23.5434 56.925 23.5434H48.9892V0.357772L56.2467 0.324097C57.7262 0.324097 58.9938 0.846067 60.0451 1.89001C61.0964 2.93395 61.6221 4.19257 61.6221 5.66588V7.85058C61.6221 8.49041 61.4313 9.18076 61.0498 9.91741C60.6428 10.7256 60.1765 11.2476 59.6551 11.4833C60.2019 11.7443 60.6683 12.22 61.0498 12.9061C61.4313 13.5965 61.6221 14.2574 61.6221 14.9014V18.5552H61.6178ZM58.0357 6.89924V6.49093C58.0357 5.32491 57.8916 4.55038 57.6033 4.16732C57.2175 3.69165 56.4248 3.45171 55.2209 3.45171H52.5671V9.93425C53.7202 9.95951 55.2421 9.96793 55.2929 9.96793C56.3994 9.96793 57.1455 9.71957 57.5312 9.21865C57.8704 8.81454 58.0357 8.04 58.0357 6.89924ZM58.0357 18.3363V15.4823C58.0357 13.727 57.616 12.8514 56.7724 12.8514H52.5671V20.5547L55.8313 20.5884C56.7215 20.5884 57.3362 20.2937 57.6711 19.7002C57.917 19.2497 58.0357 19.2834 58.0357 18.3363Z" fill="black"/>
<path d="M53.6778 0.319916H46.1913V3.25811H53.6778V0.319916Z" fill="black"/>
<path d="M239.996 7.93902C239.996 9.43338 239.585 10.6373 238.762 11.5507C237.94 12.4642 236.787 12.9188 235.307 12.9188H231.271V23.6992H227.545V0.193649L234.625 0.159973C236.104 0.159973 237.372 0.681944 238.423 1.72589C239.474 2.76983 240 4.02424 240 5.49334V7.93902H239.996ZM236.418 6.97927V6.30997C236.418 5.14816 236.278 4.37783 235.994 3.99898C235.617 3.52332 234.832 3.28759 233.65 3.28759H231.276V9.9343L234.235 9.96797C235.116 9.96797 235.727 9.67331 236.062 9.07978C236.295 8.65042 236.418 7.95165 236.418 6.97927Z" fill="black"/>
<path d="M235.239 10.3426L239.131 23.5981H235.769L232.412 11.8369" fill="black"/>
<path d="M231.382 0.159973H223.895V3.09816H231.382V0.159973Z" fill="black"/>
</svg>